# xmcd
#
# Track frame offsets: 
#        183
#        22055
#        40195
#        59120
#        83660
#        101913
#        124928
#        141790
#        170605
#        187018
#        208703
#        222155
#        240350
#        261710
#        275425
#
# Disc length: 3961 seconds
#
# Revision: 12
# Processed by: cddbd v1.5.2PL0 Copyright (c) Steve Scherf et al.
# Submitted via: ExactAudioCopyFreeDBPlugin 1.0
#
DISCID=ec0f770f
DTITLE=Paul Rodgers - Muddy Water Blues - A Tribute To Muddy Waters
DYEAR=1993
DGENRE=Blues
TTITLE0=Muddy Water Blues (Acoustic Version) [Feat. Buddy Guy]
TTITLE1=Louisiana Blues [Feat. Trevor Rabin]
TTITLE2=I Can't Be Satisfied [Feat. Brian Setzer]
TTITLE3=Rollin' Stone [Feat. Jeff Beck]
TTITLE4=Good Morning Little School Girl (Part 1) [Feat. Jeff Beck]
TTITLE5=I'm Your Hoochie Coochie Man [Feat. Steve Miller]
TTITLE6=She's Alright [Feat. Trevor Rabin]
TTITLE7=Standing Around Crying [Feat. David Gilmour]
TTITLE8=The Hunter [Feat. Slash]
TTITLE9=She Moves Me [Feat. Gary Moore]
TTITLE10=I'm Ready [Feat. Brian May]
TTITLE11=I Just Want To Make Love To You [Feat. Jeff Beck]
TTITLE12=Born Under A Bad Sign [Feat. Neal Schon]
TTITLE13=Good Morning Little School Girl (Part 2) [Feat. Richie Sambor
TTITLE13=a]
TTITLE14=Muddy Water Blues (Electric Version) [Feat. Neal Schon]
EXTD=Colaboration Details YEAR: 1993
EXTT0=
EXTT1=
EXTT2=
EXTT3=
EXTT4=
EXTT5=
EXTT6=
EXTT7=
EXTT8=
EXTT9=
EXTT10=
EXTT11=
EXTT12=
EXTT13=
EXTT14=
PLAYORDER=
